<?xml version="1.0" encoding="UTF-8"?> <svg xmlns="http://www.w3.org/2000/svg" width="120" height="36" viewBox="0 0 120 36" fill="none"><g clip-path="url(#clip0_5312_7647)"><path d="M52.0383 9.35401H51.9455C50.693 7.96765 48.3709 7.54618 46.5061 7.54618C41.7387 7.54618 38.1031 10.6211 38.1031 15.472C38.1031 20.3256 42.0143 24.0022 46.8414 24.0022C48.2477 24.0022 49.7149 23.822 51.0893 23.4283V19.0903C51.0893 17.7013 51.0588 16.2248 49.6844 15.6814V15.5926H54.3577V15.6814C54.2066 16.0446 54.2066 16.5257 54.2066 16.979V23.9108C54.2066 24.3641 54.1761 24.8465 54.3577 25.2693C51.915 25.7226 49.532 26.1732 47.0535 26.1732C39.2337 26.1732 34.6187 21.9532 34.6187 15.8961C34.6187 9.41365 39.842 5.37518 47.2404 5.37518C48.86 5.37518 50.4478 5.55676 52.037 5.88811V9.35401H52.0383Z" fill="#243646"></path><path d="M65.0764 23.788C66.9466 23.8953 68.5662 23.2724 69.9433 22.1339H70.0241L68.5954 25.739H57.2964V25.6581C58.6973 25.1704 58.5343 23.1651 58.5343 21.9444V11.7216C58.5343 10.4744 58.6973 8.49561 57.2964 7.97871V7.89786H62.5476V7.97871C61.1453 8.49428 61.3375 10.5009 61.3375 11.7216V23.5428L65.0764 23.788Z" fill="#243646"></path><path d="M73.4995 11.7216C73.4995 10.4744 73.6917 8.49561 72.2881 7.98003V7.89786H77.5128V7.98003C76.1383 8.49561 76.3027 10.5023 76.3027 11.7216V21.9457C76.3027 23.1651 76.1383 25.1452 77.5128 25.6581V25.7403H72.2881V25.6581C73.6625 25.1717 73.4995 23.1651 73.4995 21.9457V11.7216Z" fill="#243646"></path><path d="M82.5601 16.5204C82.5601 20.3177 85.2825 24.2209 89.598 24.2209C93.7796 24.2209 96.4436 21.2136 96.4436 17.1725C96.4436 13.2136 93.8869 9.3898 89.5423 9.3898C85.2825 9.38848 82.5601 12.4236 82.5601 16.5204ZM99.5795 16.6291C99.5795 22.1613 94.9313 26.1746 89.4614 26.1746C84.0167 26.1746 79.4282 22.3217 79.4282 16.7643C79.4282 11.6112 83.9637 7.30098 89.7371 7.4375C95.5079 7.40966 99.5795 11.7477 99.5795 16.6291Z" fill="#243646"></path><path d="M104.441 22.2158C104.441 23.7347 104.414 24.8162 105.874 25.6592V25.74H101.005V25.6578C102.462 24.8175 102.462 23.736 102.462 22.2171V11.3953C102.462 9.87903 102.462 8.79354 101.033 7.97974V7.8989H105.048V7.92408C105.155 8.25145 105.268 8.38531 105.461 8.60533L105.843 9.14609L115.907 21.6724V11.3953C115.907 9.87903 115.935 8.79354 114.477 7.97974V7.8989H119.316V7.97974C117.887 8.79354 117.887 9.87903 117.887 11.3953V26.6068C115.935 25.9574 115.084 25.0614 113.871 23.5173L104.441 11.7213V22.2158Z" fill="#243646"></path><path d="M14.3325 32.882L14.1443 32.9747L13.9587 32.882C5.8089 28.8912 2.3324 23.5658 2.3324 15.0713C2.3324 13.962 2.47157 11.1548 2.59615 8.67765C2.69158 6.70149 2.78568 4.83137 2.79231 4.14216L2.79496 3.79756V3.79491L3.12498 3.71804C12.1085 1.61066 17.6765 1.61199 25.1795 3.72201L25.4923 3.81081L25.4976 4.14216C25.5029 4.83534 25.5983 6.71342 25.6938 8.70284C25.8184 11.1694 25.9549 13.9686 25.9549 15.0713C25.9549 23.5658 22.481 28.8912 14.3325 32.882ZM27.7415 8.59416C27.6461 6.71607 27.552 4.77305 27.5453 4.12493L27.5268 2.22034L25.7242 1.71139C16.9117 -0.76444 10.5989 -0.173315 2.6664 1.68621L0.759159 2.13154L0.741928 4.12493C0.735301 4.77437 0.639873 6.7174 0.548421 8.59416C0.418533 11.2092 0.284668 13.9103 0.284668 15.0713C0.284668 24.3557 4.22771 30.4287 13.0707 34.76L14.1443 35.2876L15.2192 34.76C24.0569 30.4287 28.0013 24.357 28.0013 15.0713C28.0026 13.9116 27.8701 11.2092 27.7415 8.59416Z" fill="#243646"></path><path d="M13.471 8.27589H12.253V9.5138H10.9541V8.27589H9.73608V6.95315H10.9541V5.7139H12.253V6.95315H13.471V8.27589ZM24.6401 4.48924C20.9317 3.46869 17.6884 2.99022 14.2278 3.03661V4.29308H14.2172C8.68239 4.38851 4.2251 8.95847 4.2251 14.5834C4.2251 17.722 5.61543 20.5225 7.79968 22.4099C6.89709 21.1057 6.36428 19.5152 6.36428 17.8028C6.36428 13.3893 9.88585 9.79744 14.2172 9.78949V9.78551H14.2278V9.78684C14.2318 9.78684 14.2331 9.78551 14.2358 9.78551C18.5764 9.78551 22.1073 13.3813 22.1073 17.8002C22.1073 22.219 18.5764 25.8135 14.2358 25.8135H14.2278V31.9461C21.8316 28.1382 25.0921 23.0779 25.0921 15.0698C25.0921 13.9857 24.9529 11.1997 24.8296 8.7464C24.7448 7.01146 24.664 5.36003 24.6401 4.48924Z" fill="#243646"></path><path d="M7.87891 17.1694C7.87891 17.1694 11.6377 17.7142 17.378 15.29C17.378 15.29 19.1712 14.463 19.594 13.8467C19.594 13.8467 20.0858 13.3179 19.2534 13.1628C19.2534 13.1628 18.8518 13.0965 18.5205 13.1058C18.5205 13.1058 19.0321 13.0872 19.488 13.0925C19.488 13.0925 19.9983 13.1177 20.1163 13.1654C20.1163 13.1654 20.5881 13.408 20.5046 13.8003C20.5046 13.8003 20.2369 14.4656 18.5815 15.3285C18.5815 15.3285 16.6557 16.2364 16.0844 16.3901C16.0844 16.3901 14.4184 16.9812 13.2746 17.188C13.2746 17.188 11.9956 17.4743 10.8279 17.5299C10.8279 17.5299 9.74241 17.6042 8.83451 17.4372C8.83451 17.4372 8.39979 17.3683 8.06579 17.2463L7.89349 17.1814L7.87891 17.1694Z" fill="#243646"></path><path d="M9.4502 22.4614C9.45815 22.4309 13.2713 23.1294 19.0076 20.7344C19.0076 20.7344 20.4284 19.9842 20.834 19.3228C20.834 19.3228 21.3575 18.6694 20.5119 18.517C20.5119 18.517 20.1501 18.4481 19.8174 18.4547C19.8174 18.4547 20.5649 18.4176 21.0381 18.4521C21.0381 18.4521 21.3416 18.5064 21.4039 18.5356C21.4039 18.5356 21.8956 18.6509 21.7339 18.9835C21.8347 18.8696 21.7485 19.9193 20.0944 20.7821C20.0944 20.7821 19.2873 21.3003 17.9261 21.8027C17.9261 21.8027 16.5185 22.3302 15.3734 22.5383C15.3734 22.5383 14.0798 22.8537 12.545 22.8776C12.545 22.8776 11.3137 22.8961 10.4058 22.7291C10.4058 22.7291 9.97107 22.6602 9.6384 22.5383L9.46477 22.472L9.4502 22.4614Z" fill="#243646"></path><path d="M19.4902 15.5819C19.4902 15.5819 19.7711 15.5858 19.9872 15.6031C19.9872 15.6031 20.516 15.6521 20.6817 15.8165C20.6817 15.8165 20.9587 16.0007 20.5757 16.4977C20.5757 16.4977 20.1264 17.0809 19.2052 17.5991C19.2052 17.5991 18.1078 18.2578 16.6578 18.7416C16.6578 18.7416 15.2436 19.2307 14.0547 19.4507C14.0547 19.4507 12.8274 19.7303 11.6969 19.8364C11.6969 19.8364 10.3131 20.0047 9.5431 19.9848C9.5431 19.9848 8.69617 20.002 8.20312 19.892C8.20312 19.892 8.56761 20.0418 8.96523 20.1173C8.96523 20.1173 9.62527 20.2512 10.0786 20.2804C10.0786 20.2804 11.0249 20.3493 11.6385 20.3095C11.6385 20.3095 12.6776 20.2724 13.5511 20.1081C13.5511 20.1081 14.4523 19.9888 16.1555 19.4931C16.1555 19.4931 18.3172 18.7986 18.7585 18.511C18.7585 18.511 20.0243 17.9252 20.8381 17.2505C20.8381 17.2505 21.469 16.7018 21.5538 16.442C21.5538 16.442 21.7155 15.9835 21.3881 15.7157C21.3881 15.7157 21.021 15.5474 20.2509 15.562C20.2509 15.562 19.7234 15.5646 19.6386 15.5726L19.4955 15.5792H19.4849H19.4902V15.5819Z" fill="#243646"></path><path d="M13.2065 11.6772C13.2065 11.6772 14.6764 13.8879 15.3086 16.0722C15.3086 16.0722 15.7354 17.3591 16.0694 18.9363C16.0694 18.9363 16.3623 20.6063 16.3663 21.6772C16.3663 21.6772 16.4166 23.7369 16.3981 23.8999C16.3981 23.8999 16.74 23.0252 16.7705 22.1915C16.7705 22.1915 16.9508 21.4016 16.7347 19.3114C16.7347 19.3114 16.5995 17.709 16.084 16.3916C16.084 16.3916 15.4584 14.6195 14.8712 13.7501L14.1131 12.5161L13.2065 11.6772Z" fill="#243646"></path><path d="M15.0638 10.6698C14.8345 10.5227 15.9598 11.473 16.9101 13.1059C16.9101 13.1059 17.598 14.2948 17.875 15.0516C17.875 15.0516 18.4369 16.4406 18.6781 17.8879C18.6781 17.8879 18.9565 19.546 18.8372 20.8051C18.8372 20.8051 18.7683 21.88 18.653 22.4777C18.653 22.4777 18.5178 23.2094 18.4608 23.4201C18.4608 23.4201 18.4542 23.4493 18.4568 23.4572C18.4568 23.4572 18.4568 23.4718 18.482 23.4267C18.482 23.4267 18.6941 23.0503 18.8226 22.6315C18.8226 22.6315 19.093 21.8044 19.1672 21.2796C19.1672 21.2796 19.3355 19.9542 19.3316 19.5327C19.3316 19.5327 19.3117 18.5625 19.2653 18.255C19.2189 17.9436 19.2971 18.2378 19.2971 18.2378C19.2971 18.2378 18.9697 16.1676 18.6026 15.3167C18.6026 15.3167 17.9001 13.5022 17.0797 12.5638C17.0797 12.5638 16.1798 11.371 15.2321 10.7732C15.2321 10.7732 15.0505 10.6632 15.0399 10.6579C15.0307 10.6513 15.0797 10.6765 15.0797 10.6765L15.0638 10.6698Z" fill="#243646"></path><path d="M14.4135 9.54057C16.6547 9.54057 18.6826 10.4657 20.1511 11.9607C21.6197 13.4558 22.5276 15.5194 22.5276 17.8004C22.5276 20.0814 21.6197 22.1464 20.1511 23.6388C18.6826 25.1351 16.6547 26.0589 14.4135 26.0589C12.1736 26.0589 10.1444 25.1338 8.67721 23.6388C7.20868 22.1464 6.30078 20.0801 6.30078 17.8004C6.30078 15.5194 7.20868 13.4545 8.67721 11.9607C10.1457 10.4657 12.1736 9.54057 14.4135 9.54057ZM19.8238 12.2934C18.4387 10.8832 16.5262 10.0124 14.4135 10.0124C12.3022 10.0124 10.3896 10.8845 9.00458 12.2934C7.61822 13.7036 6.76202 15.6506 6.76202 17.8017C6.76202 19.9529 7.61822 21.8985 9.00458 23.3087C10.3896 24.719 12.3022 25.5897 14.4135 25.5897C16.5262 25.5897 18.4387 24.7176 19.8238 23.3087C21.2088 21.8985 22.0663 19.9529 22.0663 17.8017C22.0663 15.6506 21.2088 13.7036 19.8238 12.2934Z" fill="#243646"></path></g><defs><clipPath id="clip0_5312_7647"><rect width="120" height="35.3571" fill="white"></rect></clipPath></defs></svg> 